<svg xmlns="http://www.w3.org/2000/svg" viewBox="0 0 31.58 45.58"><defs><style>.cls-1{fill:#a67c52;stroke:#fff;}.cls-1,.cls-2{stroke-miterlimit:10;stroke-width:1.58px;}.cls-2{fill:#ccc;stroke:#ccc;}.cls-3{fill:#fff;}</style></defs><title>marker-lodging</title><g id="Layer_2" data-name="Layer 2"><g id="Layer_1-2" data-name="Layer 1"><path class="cls-1" d="M23.79.79h-16a7,7,0,0,0-7,7.05v16.1a7,7,0,0,0,7,7h.92l5.16,11a2,2,0,0,0,.78.88,2.14,2.14,0,0,0,1.14.32,2.09,2.09,0,0,0,1.14-.32,2.06,2.06,0,0,0,.8-.88l5.14-11h.92a7,7,0,0,0,7-7V7.84A7,7,0,0,0,23.79.79Z"/><path class="cls-2" d="M23.79,2.38h-16a7,7,0,0,0-7,7.05v16.1a7,7,0,0,0,7,7h.92l5.16,11a2,2,0,0,0,.78.88,2.23,2.23,0,0,0,1.14.32,2.18,2.18,0,0,0,1.14-.32,2.06,2.06,0,0,0,.8-.88l5.14-11h.92a7,7,0,0,0,7-7V9.43A7,7,0,0,0,23.79,2.38Z"/><path class="cls-1" d="M23.79.79h-16a7,7,0,0,0-7,7.05v16.1a7,7,0,0,0,7,7h.92l5.16,11a2,2,0,0,0,.78.88,2.14,2.14,0,0,0,1.14.32,2.09,2.09,0,0,0,1.14-.32,2.06,2.06,0,0,0,.8-.88l5.14-11h.92a7,7,0,0,0,7-7V7.84A7,7,0,0,0,23.79.79Z"/><path class="cls-3" d="M8.49,15.77H24.92a.61.61,0,0,1,.43.18.58.58,0,0,1,.18.43v4.29H23.09V18.22H8.49v2.45H6.06V9a.6.6,0,0,1,.18-.43.58.58,0,0,1,.43-.18H7.88a.58.58,0,0,1,.43.18A.6.6,0,0,1,8.49,9Zm4.76-1.33a2.45,2.45,0,0,0,0-3.47,2.44,2.44,0,0,0-3.44,0,2.45,2.45,0,0,0,1.72,4.18A2.36,2.36,0,0,0,13.25,14.44Zm12.28.71v-.61a3.65,3.65,0,0,0-3.65-3.67h-6.7a.58.58,0,0,0-.42.18.58.58,0,0,0-.18.43v3.67Z"/></g></g></svg>