<svg xmlns="http://www.w3.org/2000/svg" viewBox="0 0 31.58 45.58"><defs><style>.cls-1{fill:#69c;stroke:#fff;}.cls-1,.cls-2{stroke-miterlimit:10;stroke-width:1.58px;}.cls-2{fill:#ccc;stroke:#ccc;}.cls-3{fill:#fff;}</style></defs><title>marker-shopping</title><g id="Layer_2" data-name="Layer 2"><g id="Layer_1-2" data-name="Layer 1"><path class="cls-1" d="M23.79.79h-16a7,7,0,0,0-7,7.05v16.1a7,7,0,0,0,7,7h.92l5.16,11a2,2,0,0,0,.78.88,2.14,2.14,0,0,0,1.14.32,2.09,2.09,0,0,0,1.14-.32,2.06,2.06,0,0,0,.8-.88l5.14-11h.92a7,7,0,0,0,7-7V7.84A7,7,0,0,0,23.79.79Z"/><path class="cls-2" d="M23.79,2.38h-16a7,7,0,0,0-7,7.05v16.1a7,7,0,0,0,7,7h.92l5.16,11a2,2,0,0,0,.78.88,2.23,2.23,0,0,0,1.14.32,2.18,2.18,0,0,0,1.14-.32,2.06,2.06,0,0,0,.8-.88l5.14-11h.92a7,7,0,0,0,7-7V9.43A7,7,0,0,0,23.79,2.38Z"/><path class="cls-1" d="M23.79.79h-16a7,7,0,0,0-7,7.05v16.1a7,7,0,0,0,7,7h.92l5.16,11a2,2,0,0,0,.78.88,2.14,2.14,0,0,0,1.14.32,2.09,2.09,0,0,0,1.14-.32,2.06,2.06,0,0,0,.8-.88l5.14-11h.92a7,7,0,0,0,7-7V7.84A7,7,0,0,0,23.79.79Z"/><path class="cls-3" d="M24.36,19.38l.34,3.14a.63.63,0,0,1-.16.5.59.59,0,0,1-.47.21H7.52A.6.6,0,0,1,7,23a.63.63,0,0,1-.16-.5l.35-3.14ZM23.43,11l.86,7.76H7.3L8.15,11a.63.63,0,0,1,.21-.4.61.61,0,0,1,.43-.17h2.55V11.7a1.27,1.27,0,1,0,2.54,0V10.41H17.7V11.7a1.26,1.26,0,0,0,.37.9A1.23,1.23,0,0,0,19,13a1.2,1.2,0,0,0,.9-.38,1.23,1.23,0,0,0,.38-.9V10.41h2.54a.61.61,0,0,1,.43.17A.63.63,0,0,1,23.43,11ZM19.61,9.13V11.7a.61.61,0,0,1-.19.45.62.62,0,0,1-.89,0,.61.61,0,0,1-.19-.45V9.13a2.55,2.55,0,1,0-5.09,0V11.7a.64.64,0,0,1-1.28,0V9.13a3.76,3.76,0,0,1,1.12-2.72,3.81,3.81,0,0,1,5.4,0A3.72,3.72,0,0,1,19.61,9.13Z"/></g></g></svg>