<svg xmlns="http://www.w3.org/2000/svg" viewBox="0 0 31.58 45.58"><defs><style>.cls-1{fill:#ccc;stroke:#ccc;}.cls-1,.cls-2{stroke-miterlimit:10;stroke-width:1.58px;}.cls-2{fill:#9c6;stroke:#fff;}.cls-3{fill:#fff;}</style></defs><title>marker-golf</title><g id="Layer_2" data-name="Layer 2"><g id="Layer_1-2" data-name="Layer 1"><path class="cls-1" d="M23.79,2.38h-16a7,7,0,0,0-7,7.05v16.1a7,7,0,0,0,7,7h.92l5.16,11a2,2,0,0,0,.78.88,2.23,2.23,0,0,0,1.14.32,2.18,2.18,0,0,0,1.14-.32,2.06,2.06,0,0,0,.8-.88l5.14-11h.92a7,7,0,0,0,7-7V9.43A7,7,0,0,0,23.79,2.38Z"/><path class="cls-2" d="M23.79.79h-16a7,7,0,0,0-7,7.05v16.1a7,7,0,0,0,7,7h.92l5.16,11a2,2,0,0,0,.78.88,2.14,2.14,0,0,0,1.14.32,2.09,2.09,0,0,0,1.14-.32,2.06,2.06,0,0,0,.8-.88l5.14-11h.92a7,7,0,0,0,7-7V7.84A7,7,0,0,0,23.79.79Z"/><path class="cls-3" d="M15.68,23a7.37,7.37,0,0,0,3.52-3.6l7.43-12a1.4,1.4,0,0,0-.43-1.92h0A1.38,1.38,0,0,0,24.29,6l-6.8,10.93c-2.58-1.54-7.37-3.38-12.28,0a1.52,1.52,0,0,0-.56,1.47c.35,1.31,1.94,4.18,4.28,4.73C11.84,23.84,13.42,23.84,15.68,23Z"/></g></g></svg>