<svg xmlns="http://www.w3.org/2000/svg" viewBox="0 0 31.58 45.58"><defs><style>.cls-1{fill:#ccc;stroke:#ccc;}.cls-1,.cls-2{stroke-miterlimit:10;stroke-width:1.58px;}.cls-2{fill:#f93;stroke:#fff;}.cls-3{fill:#fff;}</style></defs><title>marker-dining</title><g id="Layer_2" data-name="Layer 2"><g id="Layer_1-2" data-name="Layer 1"><path class="cls-1" d="M23.79,2.38h-16a7,7,0,0,0-7,7.05v16.1a7,7,0,0,0,7,7h.92l5.16,11a2,2,0,0,0,.78.88,2.23,2.23,0,0,0,1.14.32,2.18,2.18,0,0,0,1.14-.32,2.06,2.06,0,0,0,.8-.88l5.14-11h.92a7,7,0,0,0,7-7V9.43A7,7,0,0,0,23.79,2.38Z"/><path class="cls-2" d="M23.79.79h-16a7,7,0,0,0-7,7.05v16.1a7,7,0,0,0,7,7h.92l5.16,11a2,2,0,0,0,.78.88,2.14,2.14,0,0,0,1.14.32,2.09,2.09,0,0,0,1.14-.32,2.06,2.06,0,0,0,.8-.88l5.14-11h.92a7,7,0,0,0,7-7V7.84A7,7,0,0,0,23.79.79Z"/><path class="cls-3" d="M15.13,6.87v6.69a2,2,0,0,1-.37,1.16,2,2,0,0,1-1,.73v8.14a1.37,1.37,0,0,1-1.33,1.34H11.14a1.35,1.35,0,0,1-1.33-1.34V15.45a1.89,1.89,0,0,1-1-.73,2,2,0,0,1-.37-1.16V6.87a.63.63,0,0,1,.2-.47.59.59,0,0,1,.46-.2.61.61,0,0,1,.47.2.63.63,0,0,1,.2.47v4.34a.63.63,0,0,0,.2.48.62.62,0,0,0,.46.19.64.64,0,0,0,.47-.19.67.67,0,0,0,.2-.48V6.87a.6.6,0,0,1,.2-.47.59.59,0,0,1,.46-.2.61.61,0,0,1,.47.2.63.63,0,0,1,.2.47v4.34a.63.63,0,0,0,.2.48.62.62,0,0,0,.46.19.64.64,0,0,0,.47-.19.67.67,0,0,0,.2-.48V6.87a.67.67,0,0,1,.66-.67.61.61,0,0,1,.47.2A.63.63,0,0,1,15.13,6.87Zm8,0V23.59a1.35,1.35,0,0,1-1.33,1.34H20.44a1.26,1.26,0,0,1-.93-.4,1.28,1.28,0,0,1-.39-.94V18.24H16.79a.29.29,0,0,1-.23-.1.3.3,0,0,1-.1-.23V9.54a3.22,3.22,0,0,1,1-2.36,3.18,3.18,0,0,1,2.35-1h2.66a.61.61,0,0,1,.47.2A.63.63,0,0,1,23.1,6.87Z"/></g></g></svg>