<svg xmlns="http://www.w3.org/2000/svg" viewBox="0 0 31.58 45.58"><defs><style>.cls-1{fill:gray;stroke:#fff;}.cls-1,.cls-2{stroke-miterlimit:10;stroke-width:1.58px;}.cls-2{fill:#ccc;stroke:#ccc;}.cls-3{fill:#fff;}</style></defs><title>marker-services</title><g id="Layer_2" data-name="Layer 2"><g id="Layer_1-2" data-name="Layer 1"><path class="cls-1" d="M23.79.79h-16a7,7,0,0,0-7,7.05v16.1a7,7,0,0,0,7,7h.92l5.16,11a2,2,0,0,0,.78.88,2.14,2.14,0,0,0,1.14.32,2.09,2.09,0,0,0,1.14-.32,2.06,2.06,0,0,0,.8-.88l5.14-11h.92a7,7,0,0,0,7-7V7.84A7,7,0,0,0,23.79.79Z"/><path class="cls-2" d="M23.79,2.38h-16a7,7,0,0,0-7,7.05v16.1a7,7,0,0,0,7,7h.92l5.16,11a2,2,0,0,0,.78.88,2.23,2.23,0,0,0,1.14.32,2.18,2.18,0,0,0,1.14-.32,2.06,2.06,0,0,0,.8-.88l5.14-11h.92a7,7,0,0,0,7-7V9.43A7,7,0,0,0,23.79,2.38Z"/><path class="cls-1" d="M23.79.79h-16a7,7,0,0,0-7,7.05v16.1a7,7,0,0,0,7,7h.92l5.16,11a2,2,0,0,0,.78.88,2.14,2.14,0,0,0,1.14.32,2.09,2.09,0,0,0,1.14-.32,2.06,2.06,0,0,0,.8-.88l5.14-11h.92a7,7,0,0,0,7-7V7.84A7,7,0,0,0,23.79.79Z"/><path class="cls-3" d="M20.33,21.58v1.51a.77.77,0,0,1-.22.53.73.73,0,0,1-.53.22h-6a.7.7,0,0,1-.52-.22.74.74,0,0,1-.23-.53V21.58a.74.74,0,0,1,.23-.53.7.7,0,0,1,.52-.22h.75V16.3h-.75a.7.7,0,0,1-.52-.22.74.74,0,0,1-.23-.53V14a.79.79,0,0,1,.75-.76h4.5a.74.74,0,0,1,.53.23.71.71,0,0,1,.22.53v6.79h.75a.73.73,0,0,1,.53.22A.77.77,0,0,1,20.33,21.58ZM18.83,8v2.26a.75.75,0,0,1-.75.75h-3a.69.69,0,0,1-.52-.22.74.74,0,0,1-.23-.53V8a.74.74,0,0,1,.23-.54.73.73,0,0,1,.52-.22h3a.77.77,0,0,1,.53.22A.73.73,0,0,1,18.83,8Z"/></g></g></svg>