<svg xmlns="http://www.w3.org/2000/svg" viewBox="0 0 31.58 45.58"><defs><style>.cls-1{fill:#9c6;stroke:#fff;}.cls-1,.cls-2{stroke-miterlimit:10;stroke-width:1.58px;}.cls-2{fill:#ccc;stroke:#ccc;}.cls-3{fill:#fff;}</style></defs><title>marker-activities</title><g id="Layer_2" data-name="Layer 2"><g id="Layer_1-2" data-name="Layer 1"><path class="cls-1" d="M23.79.79h-16a7,7,0,0,0-7,7.05v16.1a7,7,0,0,0,7,7h.92l5.16,11a2,2,0,0,0,.78.88,2.14,2.14,0,0,0,1.14.32,2.09,2.09,0,0,0,1.14-.32,2.06,2.06,0,0,0,.8-.88l5.14-11h.92a7,7,0,0,0,7-7V7.84A7,7,0,0,0,23.79.79Z"/><path class="cls-2" d="M23.79,2.38h-16a7,7,0,0,0-7,7.05v16.1a7,7,0,0,0,7,7h.92l5.16,11a2,2,0,0,0,.78.88,2.23,2.23,0,0,0,1.14.32,2.18,2.18,0,0,0,1.14-.32,2.06,2.06,0,0,0,.8-.88l5.14-11h.92a7,7,0,0,0,7-7V9.43A7,7,0,0,0,23.79,2.38Z"/><path class="cls-1" d="M23.79.79h-16a7,7,0,0,0-7,7.05v16.1a7,7,0,0,0,7,7h.92l5.16,11a2,2,0,0,0,.78.88,2.14,2.14,0,0,0,1.14.32,2.09,2.09,0,0,0,1.14-.32,2.06,2.06,0,0,0,.8-.88l5.14-11h.92a7,7,0,0,0,7-7V7.84A7,7,0,0,0,23.79.79Z"/><path class="cls-3" d="M22.48,9.21a2.31,2.31,0,0,1,1.72.72,2.36,2.36,0,0,1,.72,1.73v8.58A2.36,2.36,0,0,1,24.2,22a2.3,2.3,0,0,1-1.72.71H9.1A2.32,2.32,0,0,1,7.38,22a2.35,2.35,0,0,1-.71-1.73V11.66a2.35,2.35,0,0,1,.71-1.73A2.33,2.33,0,0,1,9.1,9.21h2.13l.48-1.3a1.81,1.81,0,0,1,.66-.81,1.74,1.74,0,0,1,1-.34h4.87a1.74,1.74,0,0,1,1,.34,1.81,1.81,0,0,1,.66.81l.48,1.3ZM12.78,19a4.23,4.23,0,0,0,6,0,4.3,4.3,0,0,0,0-6.06,4.23,4.23,0,0,0-6,0,4.3,4.3,0,0,0,0,6.06Zm1.08-5a2.72,2.72,0,0,1,3.87,0,2.78,2.78,0,0,1,0,3.9,2.74,2.74,0,0,1-3.87,0,2.75,2.75,0,0,1,0-3.9Z"/></g></g></svg>