<svg xmlns="http://www.w3.org/2000/svg" viewBox="0 0 31.58 45.58"><defs><style>.cls-1{fill:#ccc;stroke:#ccc;}.cls-1,.cls-2{stroke-miterlimit:10;stroke-width:1.58px;}.cls-2{fill:#369;stroke:#fff;}.cls-3{fill:#fff;}</style></defs><title>marker-none</title><g id="Layer_2" data-name="Layer 2"><g id="Layer_1-2" data-name="Layer 1"><path class="cls-1" d="M23.79,2.38h-16a7,7,0,0,0-7,7.05v16.1a7,7,0,0,0,7,7h.92l5.16,11a2,2,0,0,0,.78.88,2.23,2.23,0,0,0,1.14.32,2.18,2.18,0,0,0,1.14-.32,2.06,2.06,0,0,0,.8-.88l5.14-11h.92a7,7,0,0,0,7-7V9.43A7,7,0,0,0,23.79,2.38Z"/><path class="cls-2" d="M23.79.79h-16a7,7,0,0,0-7,7.05v16.1a7,7,0,0,0,7,7h.92l5.16,11a2,2,0,0,0,.78.88,2.14,2.14,0,0,0,1.14.32,2.09,2.09,0,0,0,1.14-.32,2.06,2.06,0,0,0,.8-.88l5.14-11h.92a7,7,0,0,0,7-7V7.84A7,7,0,0,0,23.79.79Z"/><path class="cls-3" d="M25.17,12.17a.83.83,0,0,1-.3.55l-4.09,4,1,5.67a1.42,1.42,0,0,1,0,.23.65.65,0,0,1-.12.4.38.38,0,0,1-.34.17.94.94,0,0,1-.45-.14l-5.06-2.68-5.06,2.68a.94.94,0,0,1-.45.14A.4.4,0,0,1,9.93,23a.65.65,0,0,1-.12-.4c0-.05,0-.12,0-.23l1-5.67-4.1-4a.87.87,0,0,1-.28-.55c0-.28.21-.45.63-.52l5.65-.83,2.54-5.16c.14-.31.33-.46.55-.46s.41.15.55.46l2.54,5.16,5.66.83C25,11.72,25.17,11.89,25.17,12.17Z"/></g></g></svg>