<svg xmlns="http://www.w3.org/2000/svg" viewBox="0 0 31.58 45.58"><defs><style>.cls-1{fill:#ccc;stroke:#ccc;}.cls-1,.cls-2{stroke-miterlimit:10;stroke-width:1.58px;}.cls-2{fill:#9c6;stroke:#fff;}.cls-3{fill:#fff;}</style></defs><title>marker-fishing</title><g id="Layer_2" data-name="Layer 2"><g id="Layer_1-2" data-name="Layer 1"><path class="cls-1" d="M23.79,2.38h-16a7,7,0,0,0-7,7.05v16.1a7,7,0,0,0,7,7h.92l5.16,11a2,2,0,0,0,.78.88,2.23,2.23,0,0,0,1.14.32,2.18,2.18,0,0,0,1.14-.32,2.06,2.06,0,0,0,.8-.88l5.14-11h.92a7,7,0,0,0,7-7V9.43A7,7,0,0,0,23.79,2.38Z"/><path class="cls-2" d="M23.79.79h-16a7,7,0,0,0-7,7.05v16.1a7,7,0,0,0,7,7h.92l5.16,11a2,2,0,0,0,.78.88,2.14,2.14,0,0,0,1.14.32,2.09,2.09,0,0,0,1.14-.32,2.06,2.06,0,0,0,.8-.88l5.14-11h.92a7,7,0,0,0,7-7V7.84A7,7,0,0,0,23.79.79Z"/><path class="cls-3" d="M26.21,7c-1.84-1.85-5.29-1.85-8.56-.16l-1.19.7c-.24.16-.48.32-.72.5l-.56-.3a1.26,1.26,0,0,0-1.48.23l-3.95,4A1.29,1.29,0,0,0,9.39,13a1.25,1.25,0,0,0,.67.93l.89.48A20.45,20.45,0,0,0,9.43,19.9l-3.9,1.34a.47.47,0,0,0-.3.41.45.45,0,0,0,.26.44l1.7.81a1.65,1.65,0,0,1,.76.76l.8,1.71a.45.45,0,0,0,.84,0l1.35-3.93a20.48,20.48,0,0,0,7.76-3.84l.31,1a.51.51,0,0,0,.86.21l.33-.34a1.53,1.53,0,0,0,.44-.95l.11-1.69c.48-.49.94-1,1.37-1.46l.9-1C25.51,10.22,26.82,7.58,26.21,7ZM23,8.41a1.1,1.1,0,0,1-1.57,0,1.13,1.13,0,0,1,0-1.58A1.11,1.11,0,1,1,23,8.41Z"/></g></g></svg>