<svg xmlns="http://www.w3.org/2000/svg" viewBox="0 0 31.58 45.58"><defs><style>.cls-1{fill:#f66;stroke:#fff;}.cls-1,.cls-2{stroke-miterlimit:10;stroke-width:1.58px;}.cls-2{fill:#ccc;stroke:#ccc;}.cls-3{fill:#fff;}</style></defs><title>marker-entertainment</title><g id="Layer_2" data-name="Layer 2"><g id="Layer_1-2" data-name="Layer 1"><path class="cls-1" d="M23.79.79h-16a7,7,0,0,0-7,7.05v16.1a7,7,0,0,0,7,7h.92l5.16,11a2,2,0,0,0,.78.88,2.14,2.14,0,0,0,1.14.32,2.09,2.09,0,0,0,1.14-.32,2.06,2.06,0,0,0,.8-.88l5.14-11h.92a7,7,0,0,0,7-7V7.84A7,7,0,0,0,23.79.79Z"/><path class="cls-2" d="M23.79,2.38h-16a7,7,0,0,0-7,7.05v16.1a7,7,0,0,0,7,7h.92l5.16,11a2,2,0,0,0,.78.88,2.23,2.23,0,0,0,1.14.32,2.18,2.18,0,0,0,1.14-.32,2.06,2.06,0,0,0,.8-.88l5.14-11h.92a7,7,0,0,0,7-7V9.43A7,7,0,0,0,23.79,2.38Z"/><path class="cls-1" d="M23.79.79h-16a7,7,0,0,0-7,7.05v16.1a7,7,0,0,0,7,7h.92l5.16,11a2,2,0,0,0,.78.88,2.14,2.14,0,0,0,1.14.32,2.09,2.09,0,0,0,1.14-.32,2.06,2.06,0,0,0,.8-.88l5.14-11h.92a7,7,0,0,0,7-7V7.84A7,7,0,0,0,23.79.79Z"/><path class="cls-3" d="M26.5,14.72,14.4,26.91a1.7,1.7,0,0,1-2.41,0l-1.68-1.69a2.6,2.6,0,0,0,0-3.65,2.57,2.57,0,0,0-3.63,0L5,19.88a1.68,1.68,0,0,1-.5-1.22A1.65,1.65,0,0,1,5,17.45L17.11,5.29a1.65,1.65,0,0,1,1.21-.5,1.62,1.62,0,0,1,1.2.5L21.19,7a2.49,2.49,0,0,0-.75,1.83,2.47,2.47,0,0,0,.75,1.82,2.55,2.55,0,0,0,3.63,0l1.68,1.68A1.66,1.66,0,0,1,27,13.51,1.64,1.64,0,0,1,26.5,14.72ZM14.64,23.27,22.89,15a.86.86,0,0,0,0-1.21L18.06,8.91a.87.87,0,0,0-1.2,0L8.62,17.2a.85.85,0,0,0-.26.61.83.83,0,0,0,.26.6l4.82,4.86a.87.87,0,0,0,1.2,0Zm2.82-13.14,4.21,4.24L14,22.05,9.83,17.81Z"/></g></g></svg>