<svg xmlns="http://www.w3.org/2000/svg" viewBox="0 0 31.58 45.58"><defs><style>.cls-1{fill:#f66;stroke:#fff;}.cls-1,.cls-2{stroke-miterlimit:10;stroke-width:1.58px;}.cls-2{fill:#ccc;stroke:#ccc;}.cls-3{fill:#fff;}</style></defs><title>marker-nightlife</title><g id="Layer_2" data-name="Layer 2"><g id="Layer_1-2" data-name="Layer 1"><path class="cls-1" d="M23.79.79h-16a7,7,0,0,0-7,7.05v16.1a7,7,0,0,0,7,7h.92l5.16,11a2,2,0,0,0,.78.88,2.14,2.14,0,0,0,1.14.32,2.09,2.09,0,0,0,1.14-.32,2.06,2.06,0,0,0,.8-.88l5.14-11h.92a7,7,0,0,0,7-7V7.84A7,7,0,0,0,23.79.79Z"/><path class="cls-2" d="M23.79,2.38h-16a7,7,0,0,0-7,7.05v16.1a7,7,0,0,0,7,7h.92l5.16,11a2,2,0,0,0,.78.88,2.23,2.23,0,0,0,1.14.32,2.18,2.18,0,0,0,1.14-.32,2.06,2.06,0,0,0,.8-.88l5.14-11h.92a7,7,0,0,0,7-7V9.43A7,7,0,0,0,23.79,2.38Z"/><path class="cls-1" d="M23.79.79h-16a7,7,0,0,0-7,7.05v16.1a7,7,0,0,0,7,7h.92l5.16,11a2,2,0,0,0,.78.88,2.14,2.14,0,0,0,1.14.32,2.09,2.09,0,0,0,1.14-.32,2.06,2.06,0,0,0,.8-.88l5.14-11h.92a7,7,0,0,0,7-7V7.84A7,7,0,0,0,23.79.79Z"/><path class="cls-3" d="M23.78,8.74a1.19,1.19,0,0,1-.43.78l-6.29,6.33v7.69h3.19a.63.63,0,0,1,.63.64.64.64,0,0,1-.18.45.65.65,0,0,1-.45.19H11.34a.62.62,0,0,1-.45-.19.61.61,0,0,1-.19-.45.65.65,0,0,1,.64-.64h3.18V15.85L8.23,9.52a1.23,1.23,0,0,1-.43-.78A.45.45,0,0,1,8,8.37a.86.86,0,0,1,.38-.17,2,2,0,0,1,.43,0h14a1.91,1.91,0,0,1,.43,0,.86.86,0,0,1,.38.17A.45.45,0,0,1,23.78,8.74Z"/></g></g></svg>